<svg width="28" height="25" viewBox="0 0 28 25" fill="none" xmlns="http://www.w3.org/2000/svg">
<path d="M13.5416 10.7239C12.0521 10.7239 10.8335 11.9302 10.8335 13.4049C10.8335 14.8796 12.0521 16.086 13.5416 16.086C15.0311 16.086 16.2498 14.8797 16.2498 13.4049C16.2498 11.9302 15.0311 10.7239 13.5416 10.7239ZM21.6666 13.4048C21.6666 8.98125 18.0102 5.36192 13.5416 5.36192C9.07308 5.36192 5.41663 8.98125 5.41663 13.4048C5.41663 16.3542 7.0417 18.9678 9.47887 20.3756L10.8335 18.0298C9.20771 17.0912 8.1249 15.4157 8.1249 13.4048C8.1249 10.4559 10.5619 8.04297 13.5416 8.04297C16.5215 8.04297 18.9584 10.4559 18.9584 13.4048C18.9584 15.4157 17.8755 17.0912 16.2498 18.0298L17.6044 20.3756C20.0414 18.9678 21.6666 16.3542 21.6666 13.4048ZM13.5416 0C6.09352 0 -3.05176e-05 6.03216 -3.05176e-05 13.4048C-3.05176e-05 18.3649 2.70778 22.6542 6.7708 25L8.1249 22.6542C4.87497 20.7776 2.70778 17.3596 2.70778 13.4049C2.70778 7.5069 7.5835 2.68105 13.5416 2.68105C19.4998 2.68105 24.3754 7.5069 24.3754 13.4049C24.3754 17.3596 22.2084 20.8444 18.9584 22.6542L20.3125 25C24.3754 22.6542 27.0833 18.3649 27.0833 13.4048C27.0833 6.03216 20.9897 0 13.5416 0Z" fill="white"/>
</svg>
